HIERARCHY
ROOT SpineBase
{
  OFFSET 0.000000 0.000000 0.000000
  CHANNELS 6 Xposition Yposition Zposition Zrotation Xrotation Yrotation
  JOINT SpineMid
  {
    OFFSET 0.000000 27.076848 0.000000
    CHANNELS 3 Zrotation Xrotation Yrotation
    JOINT SpineShoulder
    {
      OFFSET -0.011849 20.171027 -0.743495
      CHANNELS 3 Zrotation Xrotation Yrotation
      JOINT Neck
      {
        OFFSET -0.029863 6.700996 -0.537521
        CHANNELS 3 Zrotation Xrotation Yrotation
        JOINT Head
        {
          OFFSET -2.859585 12.363007 1.043445
          CHANNELS 3 Zrotation Xrotation Yrotation
          End Site
          {
            OFFSET 0 0 0
          }
        }
      }
      JOINT ShoulderLeft
      {
        OFFSET -13.345854 -3.865385 4.144392
        CHANNELS 3 Zrotation Xrotation Yrotation
        JOINT ElbowLeft
        {
          OFFSET -0.713185 -22.976985 0.635638
          CHANNELS 3 Zrotation Xrotation Yrotation
          JOINT WristLeft
          {
            OFFSET -0.392393 -19.314795 -5.969682
            CHANNELS 3 Zrotation Xrotation Yrotation
            JOINT HandLeft
            {
              OFFSET 0.726049 -5.663062 -1.851455
              CHANNELS 3 Zrotation Xrotation Yrotation
              JOINT HandTipLeft
              {
                OFFSET 0.025000 -5.976181 -1.436854
                CHANNELS 3 Zrotation Xrotation Yrotation
                End Site
                {
                  OFFSET 0 0 0
                }
              }
              JOINT ThumbLeft
              {
                OFFSET -3.642888 0.739778 -1.197332
                CHANNELS 3 Zrotation Xrotation Yrotation
                End Site
                {
                  OFFSET 0 0 0
                }
              }
            }
          }
        }
      }
      JOINT ShoulderRight
      {
        OFFSET 11.470307 -2.793704 -6.272501
        CHANNELS 3 Zrotation Xrotation Yrotation
        JOINT ElbowRight
        {
          OFFSET 4.890063 -21.482403 -2.370543
          CHANNELS 3 Zrotation Xrotation Yrotation
          JOINT WristRight
          {
            OFFSET -1.711966 -21.101606 -6.392194
            CHANNELS 3 Zrotation Xrotation Yrotation
            JOINT HandRight
            {
              OFFSET -0.311659 -5.835098 -0.777055
              CHANNELS 3 Zrotation Xrotation Yrotation
              JOINT HandTipRight
              {
                OFFSET -0.127208 -5.576269 -1.447863
                CHANNELS 3 Zrotation Xrotation Yrotation
                End Site
                {
                  OFFSET 0 0 0
                }
              }
              JOINT ThumbRight
              {
                OFFSET 2.886085 0.129289 -3.141969
                CHANNELS 3 Zrotation Xrotation Yrotation
                End Site
                {
                  OFFSET 0 0 0
                }
              }
            }
          }
        }
      }
    }
  }
  JOINT HipLeft
  {
    OFFSET -5.467486 -0.038349 -1.319105
    CHANNELS 3 Zrotation Xrotation Yrotation
    JOINT KneeLeft
    {
      OFFSET 6.136596 -30.953185 1.960531
      CHANNELS 3 Zrotation Xrotation Yrotation
      JOINT AnkleLeft
      {
        OFFSET 5.037464 -30.635734 5.973802
        CHANNELS 3 Zrotation Xrotation Yrotation
        JOINT FootLeft
        {
          OFFSET -1.409437 -2.992277 -9.397507
          CHANNELS 3 Zrotation Xrotation Yrotation
          End Site
          {
            OFFSET 0 0 0
          }
        }
      }
    }
  }
  JOINT HipRight
  {
    OFFSET 5.073321 1.700068 -4.845194
    CHANNELS 3 Zrotation Xrotation Yrotation
    JOINT KneeRight
    {
      OFFSET 5.745270 -21.150053 -3.590787
      CHANNELS 3 Zrotation Xrotation Yrotation
      JOINT AnkleRight
      {
        OFFSET 7.232193 -40.574144 7.725135
        CHANNELS 3 Zrotation Xrotation Yrotation
        JOINT FootRight
        {
          OFFSET -4.603370 -6.543919 -0.411837
          CHANNELS 3 Zrotation Xrotation Yrotation
          End Site
          {
            OFFSET 0 0 0
          }
        }
      }
    }
  }
}
MOTION
Frames: 16
Frame Time: 0.033333
25.678178 67.831387 362.423187 -0.000000 0.000000 18.496012 0.000000 0.000000 -18.496012 -0.000000 0.000000 0.000000 -0.000000 0.000000 0.000000 0.000000 0.000000 0.000000 -0.000000 0.000000 0.000000 -0.000000 0.000000 0.000000 -0.000000 0.000000 0.000000 -0.000000 0.000000 0.000000 0.000000 0.000000 0.000000 0.000000 0.000000 0.000000 -0.000000 0.000000 0.000000 -0.000000 0.000000 0.000000 -0.000000 0.000000 0.000000 -0.000000 0.000000 0.000000 0.000000 0.000000 0.000000 0.000000 0.000000 0.000000 0.000000 0.000000 -18.496012 -0.000000 0.000000 0.000000 -0.000000 0.000000 0.000000 0.000000 0.000000 0.000000 0.000000 0.000000 -18.496012 -0.000000 0.000000 0.000000 -0.000000 0.000000 0.000000 0.000000 0.000000 0.000000
25.757153 67.796048 362.285929 0.135367 0.116030 18.528877 -0.165223 -0.066998 -18.529110 -0.000000 0.000000 0.000000 -0.000000 0.000000 0.000000 0.000000 0.000000 0.000000 -0.000000 0.000000 0.000000 -0.000000 0.000000 0.000000 -0.000000 0.000000 0.000000 1.126313 0.642058 -0.274052 0.000000 0.000000 0.000000 0.000000 0.000000 0.000000 -0.000000 0.000000 0.000000 1.033595 0.729983 -0.378464 -4.068487 -0.738110 0.729495 2.946341 -1.708829 -0.344361 0.000000 0.000000 0.000000 0.000000 0.000000 0.000000 -0.165223 -0.066998 -18.529110 -0.000000 0.000000 0.000000 -0.314975 0.320398 0.830788 0.000000 0.000000 0.000000 -1.112385 -2.649125 -19.288587 0.041465 2.749932 0.736027 1.810589 3.122609 -2.382537 0.000000 0.000000 0.000000
25.821047 67.765493 362.170362 0.249665 0.205968 18.532271 -0.302184 -0.115932 -18.533026 -0.000000 0.000000 0.000000 -0.000000 0.000000 0.000000 0.000000 0.000000 0.000000 -0.136978 0.909683 -0.030944 0.137486 -0.909607 0.033123 -0.000000 0.000000 0.000000 2.112487 1.163354 -0.523225 0.000000 0.000000 0.000000 0.000000 0.000000 0.000000 -0.000000 0.000000 0.000000 1.959674 1.368965 -0.726544 -7.404351 -1.491654 1.270010 5.297120 -2.952648 -0.630723 0.000000 0.000000 0.000000 0.000000 0.000000 0.000000 -0.302184 -0.115932 -18.533026 -0.000000 0.000000 0.000000 -0.655386 0.676476 1.707170 0.000000 0.000000 0.000000 -1.901201 -4.421215 -19.828056 -0.799115 5.272810 1.269714 4.121566 4.777339 -4.212428 0.000000 0.000000 0.000000
25.869860 67.739720 362.076485 0.343021 0.269945 18.507393 -0.410970 -0.147095 -18.508728 -0.000000 0.000000 0.000000 -0.000000 0.000000 0.000000 0.000000 0.000000 0.000000 -0.170604 1.211181 -0.040522 0.224233 -2.165934 0.049040 -0.051912 0.954923 -0.002916 2.943702 1.557417 -0.738910 0.000000 0.000000 0.000000 0.000000 0.000000 0.000000 -0.000000 0.000000 0.000000 2.748594 1.899208 -1.029247 -10.054067 -2.209095 1.654818 7.133100 -3.769832 -0.868382 0.000000 0.000000 0.000000 0.000000 0.000000 0.000000 -0.410970 -0.147095 -18.508728 -0.000000 0.000000 0.000000 -1.019955 1.064073 2.623606 0.000000 0.000000 0.000000 -2.442009 -5.584753 -20.168541 -1.154802 6.745906 1.640081 5.542282 6.118623 -5.535900 0.000000 0.000000 0.000000
25.903592 67.718731 362.004298 0.415543 0.308069 18.455010 -0.491696 -0.160674 -18.456816 -0.000000 0.000000 0.000000 -0.000000 0.000000 0.000000 0.000000 0.000000 0.000000 -0.181117 1.410735 -0.046584 0.246757 -2.575328 0.057400 -0.063264 1.164810 -0.003457 3.608297 1.820221 -0.913924 0.000000 0.000000 0.000000 0.000000 0.000000 0.000000 -0.000000 0.000000 0.000000 3.375294 2.306950 -1.273148 -12.053213 -2.854168 1.914631 8.517108 -4.185138 -1.064629 0.000000 0.000000 0.000000 0.000000 0.000000 0.000000 -0.491696 -0.160674 -18.456816 -0.000000 0.000000 0.000000 -1.407151 1.478824 3.574301 0.000000 0.000000 0.000000 -2.779212 -6.288015 -20.343152 -1.420727 7.664643 1.877837 6.433335 6.844997 -6.304097 0.000000 0.000000 0.000000
25.922243 67.702525 361.953802 0.467314 0.320420 18.375477 -0.544497 -0.156755 -18.377529 -0.000000 0.000000 0.000000 -0.822780 -0.280287 0.002606 0.000000 0.000000 0.000000 -0.168571 1.508501 -0.049285 0.242922 -2.827615 0.061170 -0.049554 0.021367 -0.178390 4.070292 3.257089 -0.961408 0.000000 0.000000 0.000000 0.000000 0.000000 0.000000 -0.492775 -0.709565 -0.110379 4.310628 3.299102 -1.391016 -13.427533 -3.404498 2.075139 9.494845 -4.210057 -1.224977 0.000000 0.000000 0.000000 0.000000 0.000000 0.000000 -0.544497 -0.156755 -18.377529 -0.000000 0.000000 0.000000 -1.815211 1.916257 4.553302 0.000000 0.000000 0.000000 -2.937714 -6.609843 -20.370701 -1.566647 8.095752 1.993414 6.751851 7.003681 -6.512186 0.000000 0.000000 0.000000
25.934290 67.677469 361.917332 0.511128 0.293177 18.116654 -0.576954 -0.119696 -18.118564 -0.000000 0.000000 0.000000 -0.910514 -0.342588 -0.005125 0.000000 0.000000 0.000000 -0.000283 1.382953 -0.042946 0.089195 -2.865697 0.049576 0.615522 -0.639921 -0.511870 5.787082 3.808332 -1.373206 0.000000 0.000000 0.000000 0.000000 0.000000 0.000000 -0.503868 -0.896076 -0.152602 4.587658 3.704860 -1.478840 -14.449556 -4.104801 2.160168 11.112540 -3.361182 -1.601152 0.000000 0.000000 0.000000 0.000000 0.000000 0.000000 -1.336074 -0.430233 -18.267221 0.623555 0.532796 0.142114 -4.061163 4.587303 9.397440 0.000000 0.000000 0.000000 -2.971004 -6.700077 -20.147658 -1.662550 8.291701 2.044055 6.893540 5.002658 -5.033906 0.000000 0.000000 0.000000
25.918503 67.665967 361.912941 0.510301 0.233731 17.951420 -0.557497 -0.065065 -17.952778 -0.000000 0.000000 0.000000 -0.930038 -0.379742 -0.012447 0.000000 0.000000 0.000000 0.079047 1.346064 -0.040538 0.030751 -2.949097 0.042063 0.389565 -2.185772 -0.650493 4.051476 5.523532 -0.793272 0.000000 0.000000 0.000000 0.000000 0.000000 0.000000 -0.392524 -1.154744 -0.223929 4.397559 3.917383 -1.394510 -14.248834 -4.135119 2.135550 11.040050 -2.773467 -1.621524 0.000000 0.000000 0.000000 0.000000 0.000000 0.000000 -1.342180 -0.375671 -18.103671 0.649352 0.539025 0.144820 -5.117807 5.597681 11.619624 0.000000 0.000000 0.000000 -2.761213 -6.227355 -19.838261 -1.496085 7.704274 1.891305 6.514964 -0.500117 -0.687409 0.000000 0.000000 0.000000
25.883863 67.664378 361.938112 0.501297 0.161882 17.883097 -0.526787 -0.000120 -17.883805 -0.000000 0.000000 0.000000 -1.026406 -0.472201 -0.026885 0.000000 0.000000 0.000000 0.057219 1.205504 -0.036449 0.039045 -2.768602 0.041141 0.381254 -4.682034 -0.962127 3.158919 6.323651 -0.298482 0.000000 0.000000 0.000000 0.000000 0.000000 0.000000 -0.249949 -1.384358 -0.291109 3.945085 3.846728 -1.200992 -13.003295 -3.517540 2.030062 8.665313 -1.896707 -1.119434 0.000000 0.000000 0.000000 0.000000 0.000000 0.000000 -0.526787 -0.000120 -17.883805 -0.000000 0.000000 0.000000 -2.709854 2.996226 6.552383 0.000000 0.000000 0.000000 -2.367570 -5.238364 -19.466012 -1.116102 6.532863 1.590374 4.139792 5.224818 -4.731984 0.000000 0.000000 0.000000
25.841949 67.679745 361.975333 0.462038 0.108312 17.797191 -0.473032 0.038095 -17.797470 -0.000000 0.000000 0.000000 -1.041244 -0.599465 -0.056365 0.000000 0.000000 0.000000 -0.061024 1.085714 -0.034819 0.130824 -2.532518 0.046526 0.379141 -6.467382 -1.176694 1.453029 8.347982 0.446996 0.000000 0.000000 0.000000 0.000000 0.000000 0.000000 -0.041195 -1.610089 -0.363155 3.573860 3.827981 -1.056183 -12.178449 -3.771026 1.950373 7.427298 -1.252710 -0.939811 0.000000 0.000000 0.000000 0.000000 0.000000 0.000000 -0.473032 0.038095 -17.797470 -0.000000 0.000000 0.000000 0.568851 -2.936399 -0.423631 0.000000 0.000000 0.000000 -1.880456 -4.357943 -19.114632 -0.998474 5.369500 1.318517 1.929437 4.506468 -3.798094 0.000000 0.000000 0.000000
25.773628 67.718783 362.048088 0.379964 0.033825 17.758971 -0.372175 0.083681 -17.758812 -0.000000 0.000000 0.000000 -1.027551 -0.659592 -0.071937 0.000000 0.000000 0.000000 -0.229780 0.968254 -0.034475 0.209326 -2.210119 0.069885 0.134447 -8.433767 -1.343231 0.080064 10.488549 1.172018 0.000000 0.000000 0.000000 0.000000 0.000000 0.000000 0.214897 -1.760698 -0.421766 3.068136 3.654915 -0.877561 -11.322756 -3.306493 1.865419 5.438862 0.674914 -0.477764 0.000000 0.000000 0.000000 0.000000 0.000000 0.000000 -0.372175 0.083681 -17.758812 -0.000000 0.000000 0.000000 2.887435 -8.654317 -6.345976 0.000000 0.000000 0.000000 -1.084263 -2.975958 -18.674517 -0.305007 3.126512 0.906052 0.560387 1.441372 -1.059090 0.000000 0.000000 0.000000
25.710729 67.768167 362.102385 0.316810 -0.045343 17.679269 -0.288078 0.139412 -17.678793 -0.000000 0.000000 0.000000 -1.086202 -0.720019 -0.081913 0.000000 0.000000 0.000000 -0.347860 0.980895 -0.037098 0.229073 -2.168696 0.101285 -0.395784 -8.231710 -1.169509 0.330217 9.427919 1.047619 0.000000 0.000000 0.000000 0.000000 0.000000 0.000000 0.347763 -1.759627 -0.434045 2.665904 3.255942 -0.725036 -10.267579 -1.170735 1.763534 3.865803 -1.615746 -0.066628 0.000000 0.000000 0.000000 0.000000 0.000000 0.000000 -0.288078 0.139412 -17.678793 -0.000000 0.000000 0.000000 4.125679 -12.795656 -10.193010 0.000000 0.000000 0.000000 -0.576318 -2.564866 -18.503709 -0.585220 2.655921 0.832380 0.438384 -2.885903 2.022433 0.000000 0.000000 0.000000
25.639385 67.825592 362.175311 0.222937 -0.146105 17.485303 -0.168738 0.206338 -17.484715 -0.000000 0.000000 0.000000 -0.992809 -0.707718 -0.086252 0.000000 0.000000 0.000000 -0.504297 1.099402 -0.043244 0.115815 -2.138329 0.184003 -1.278739 -9.220635 -1.074908 -3.807838 10.335138 2.882693 0.000000 0.000000 0.000000 0.000000 0.000000 0.000000 0.353193 -1.706313 -0.422549 2.377504 2.856582 -0.599885 -8.983373 0.639664 1.590268 2.192999 -2.073275 0.284673 0.000000 0.000000 0.000000 0.000000 0.000000 0.000000 -0.168738 0.206338 -17.484715 -0.000000 0.000000 0.000000 4.448749 -14.426950 -11.233482 0.000000 0.000000 0.000000 0.235877 -1.299004 -17.980169 -0.849719 1.306845 0.509004 1.044323 -7.627002 5.430669 0.000000 0.000000 0.000000
25.567196 67.853348 362.259538 0.138029 -0.246473 17.285936 -0.058559 0.276354 -17.285498 -0.000000 0.000000 0.000000 -0.878231 -0.694199 -0.091977 0.000000 0.000000 0.000000 -0.658344 1.258290 -0.050047 0.314826 -2.508517 0.185939 -1.777931 -9.446664 -1.005599 -2.842984 9.118373 2.506785 0.000000 0.000000 0.000000 0.000000 0.000000 0.000000 0.271282 -1.544583 -0.378252 2.208742 2.514788 -0.535277 -7.882167 1.577097 1.409269 1.519046 -3.545636 0.357970 0.000000 0.000000 0.000000 0.000000 0.000000 0.000000 -0.058559 0.276354 -17.285498 -0.000000 0.000000 0.000000 3.979046 -13.196728 -9.324872 0.000000 0.000000 0.000000 0.544734 -1.197629 -17.786156 -1.024908 1.219126 0.516413 3.250236 -12.231676 9.003367 0.000000 0.000000 0.000000
25.493225 67.875716 362.341087 0.058169 -0.343107 17.154410 0.045617 0.345000 -17.154373 -0.000000 0.000000 0.000000 -0.732585 -0.632623 -0.088714 0.000000 0.000000 0.000000 -0.740132 1.393285 -0.054732 0.377445 -2.732533 0.200340 -2.322773 -8.043679 -0.650698 -3.478068 7.145257 2.466375 0.000000 0.000000 0.000000 0.000000 0.000000 0.000000 0.084163 -1.340178 -0.313735 2.234539 2.362309 -0.546463 -7.253848 1.952230 1.291452 1.145041 -5.213066 0.390204 0.000000 0.000000 0.000000 0.000000 0.000000 0.000000 0.045617 0.345000 -17.154373 -0.000000 0.000000 0.000000 2.573148 -9.370793 -4.707422 0.000000 0.000000 0.000000 0.514296 -2.324456 -18.012003 -1.272027 2.393415 0.892301 1.699671 -6.865123 4.896730 0.000000 0.000000 0.000000
25.428667 67.893268 362.414492 -0.005033 -0.425476 17.044244 0.129525 0.405313 -17.044721 -0.000000 0.000000 0.000000 -0.593654 -0.569565 -0.084725 0.000000 0.000000 0.000000 -0.706973 1.347009 -0.053066 0.460314 -2.832973 0.168440 -0.724098 -6.765573 -0.921582 0.146432 6.543617 0.962105 0.000000 0.000000 0.000000 0.000000 0.000000 0.000000 -0.043036 -1.310513 -0.294466 2.415062 2.511530 -0.603079 -7.722619 1.938081 1.357308 1.394694 -6.896727 0.364214 0.000000 0.000000 0.000000 0.000000 0.000000 0.000000 0.129525 0.405313 -17.044721 -0.000000 0.000000 0.000000 0.096006 -3.844677 1.692263 0.000000 0.000000 0.000000 0.925556 -1.935335 -17.824033 -1.475030 1.984252 0.815488 1.421158 -6.203421 4.407013 0.000000 0.000000 0.000000
